# Blender 4.4.1
# www.blender.org
mtllib key.mtl
o 円
v -0.024505 0.484167 -0.053956
v 0.206195 0.412375 -0.053956
v 0.301754 0.239053 -0.053956
v 0.206195 0.065731 -0.053956
v -0.255205 0.065731 -0.053956
v -0.350764 0.239053 -0.053956
v -0.255205 0.412375 -0.053956
v -0.024505 0.411304 -0.053956
v 0.137617 0.360853 -0.053956
v 0.204769 0.239053 -0.053956
v 0.137617 0.117253 -0.053956
v -0.186626 0.117253 -0.053956
v -0.253779 0.239053 -0.053956
v -0.186626 0.360853 -0.053956
v 0.032634 0.011719 -0.053956
v -0.081644 0.011719 -0.053956
v -0.081644 0.084583 -0.053956
v 0.032634 0.084583 -0.053956
v 0.029542 -0.494523 -0.053956
v -0.078552 -0.494523 -0.053956
v -0.081281 -0.086578 -0.053956
v -0.080663 -0.187827 -0.053956
v -0.080044 -0.289075 -0.053956
v -0.079426 -0.390323 -0.053956
v 0.030416 -0.390323 -0.053956
v 0.031035 -0.289075 -0.053956
v 0.031653 -0.187827 -0.053956
v 0.032271 -0.086578 -0.053956
v 0.170606 -0.390323 -0.053956
v 0.171225 -0.289075 -0.053956
v 0.171843 -0.187827 -0.053956
v 0.172462 -0.086578 -0.053956
v 0.206195 0.412375 0.053956
v -0.024505 0.484167 0.053956
v 0.301754 0.239053 0.053956
v 0.206195 0.065731 0.053956
v -0.350764 0.239053 0.053956
v -0.255205 0.065731 0.053956
v -0.255205 0.412375 0.053956
v 0.137617 0.360853 0.053956
v -0.024505 0.411304 0.053956
v 0.204769 0.239053 0.053956
v 0.137617 0.117253 0.053956
v -0.253779 0.239053 0.053956
v -0.186626 0.117253 0.053956
v -0.186626 0.360853 0.053956
v -0.081644 0.011719 0.053956
v 0.032634 0.011719 0.053956
v 0.032634 0.084583 0.053956
v -0.081644 0.084583 0.053956
v -0.078552 -0.494523 0.053956
v 0.029542 -0.494523 0.053956
v -0.079426 -0.390323 0.053956
v 0.032271 -0.086578 0.053956
v -0.081281 -0.086578 0.053956
v -0.080663 -0.187827 0.053956
v -0.080044 -0.289075 0.053956
v 0.030416 -0.390323 0.053956
v 0.031035 -0.289075 0.053956
v 0.031653 -0.187827 0.053956
v 0.170606 -0.390323 0.053956
v 0.171225 -0.289075 0.053956
v 0.171843 -0.187827 0.053956
v 0.172462 -0.086578 0.053956
vn -0.0000 -0.0000 -1.0000
vn -0.0000 -0.0000 1.0000
vn -0.2971 -0.9548 -0.0000
vn -1.0000 -0.0061 -0.0000
vn -0.0000 -1.0000 -0.0000
vn -0.8757 -0.4828 -0.0000
vn 1.0000 -0.0084 -0.0000
vn -0.0000 1.0000 -0.0000
vn -0.8757 0.4828 -0.0000
vn 0.8757 0.4828 -0.0000
vn 1.0000 -0.0061 -0.0000
vn 0.2971 -0.9548 -0.0000
vn 0.8757 -0.4828 -0.0000
vn -0.2971 0.9548 -0.0000
vn 0.2971 0.9548 -0.0000
vn -1.0000 -0.0084 -0.0000
vn 1.0000 -0.0037 -0.0000
vn -1.0000 -0.0037 -0.0000
vt 0.415197 0.756576
vt 0.414321 0.650074
vt 0.473916 0.650074
vt 0.131678 0.543572
vt 0.132554 0.650074
vt 0.072959 0.650074
vt 0.173818 0.724917
vt 0.273438 0.800691
vt 0.131678 0.756576
vt 0.373057 0.724917
vt 0.415197 0.543572
vt 0.373057 0.575231
vt 0.308548 0.510383
vt 0.238327 0.555156
vt 0.238327 0.510383
vt 0.173818 0.575231
vt 0.240227 0.199309
vt 0.307185 0.263337
vt 0.239690 0.263337
vt 0.238550 0.449981
vt 0.238930 0.387767
vt 0.308325 0.449981
vt 0.239310 0.325552
vt 0.307945 0.387767
vt 0.307565 0.325552
vt 0.152786 0.387767
vt 0.153546 0.263337
vt 0.173818 0.575231
vt 0.273438 0.755918
vt 0.373057 0.575231
vt 0.238930 0.387767
vt 0.307945 0.387767
vt 0.152786 0.387767
vt 0.152406 0.449981
vt 0.153166 0.325552
vt 0.608917 0.878880
vt 0.689249 0.909378
vt 0.608917 0.909378
vt 0.608917 0.741320
vt 0.689249 0.783547
vt 0.608917 0.783547
vt 0.689249 0.814934
vt 0.608917 0.814934
vt 0.308548 0.555156
vt 0.608917 0.638097
vt 0.689249 0.668595
vt 0.608917 0.668595
vt 0.608917 0.493537
vt 0.689249 0.438785
vt 0.689249 0.493537
vt 0.608916 0.000018
vt 0.689249 0.054770
vt 0.608916 0.054770
vt 0.608916 0.246777
vt 0.689249 0.319554
vt 0.608917 0.319554
vt 0.689249 0.847493
vt 0.608917 0.847493
vt 0.689249 0.379170
vt 0.608917 0.379170
vt 0.689249 0.878880
vt 0.608917 0.710822
vt 0.689249 0.741320
vt 0.608917 0.438785
vt 0.608917 0.523145
vt 0.689249 0.523145
vt 0.608917 0.595870
vt 0.689249 0.565372
vt 0.689249 0.595870
vt 0.689249 0.114385
vt 0.608916 0.114385
vt 0.608917 0.970374
vt 0.689249 0.999982
vt 0.608917 0.999982
vt 0.608917 0.565372
vt 0.689249 0.174001
vt 0.608916 0.174001
vt 0.608917 0.939876
vt 0.689249 0.970373
vt 0.689249 0.638097
vt 0.689249 0.246777
vt 0.689249 0.939876
vt 0.689249 0.710822
vt 0.306648 0.199309
vt 0.689249 0.000018
s 0
usemtl マテリアル
f 7/1/1 13/2/1 6/3/1
f 4/4/1 10/5/1 3/6/1
f 9/7/1 1/8/1 2/9/1
f 1/8/1 14/10/1 7/1/1
f 13/2/1 5/11/1 6/3/1
f 12/12/1 16/13/1 5/11/1
f 10/5/1 2/9/1 3/6/1
f 16/13/1 18/14/1 15/15/1
f 15/15/1 11/16/1 4/4/1
f 19/17/1 24/18/1 25/19/1
f 28/20/1 16/13/1 15/15/1
f 27/21/1 21/22/1 28/20/1
f 26/23/1 22/24/1 27/21/1
f 25/19/1 23/25/1 26/23/1
f 28/20/1 31/26/1 27/21/1
f 26/23/1 29/27/1 25/19/1
f 39/1/2 44/2/2 46/10/2
f 36/4/2 42/5/2 43/28/2
f 34/8/2 40/7/2 33/9/2
f 34/8/2 46/10/2 41/29/2
f 38/11/2 44/2/2 37/3/2
f 47/13/2 45/30/2 38/11/2
f 33/9/2 42/5/2 35/6/2
f 49/14/2 47/13/2 48/15/2
f 48/15/2 43/28/2 49/14/2
f 53/18/2 52/17/2 58/19/2
f 48/15/2 55/22/2 54/20/2
f 55/22/2 60/31/2 54/20/2
f 56/32/2 59/23/2 60/31/2
f 59/23/2 53/18/2 58/19/2
f 54/20/2 63/33/2 64/34/2
f 59/23/2 61/27/2 62/35/2
f 8/29/3 40/7/3 41/29/3
f 24/36/4 57/37/4 23/38/4
f 29/39/5 58/40/5 25/41/5
f 10/5/6 40/7/6 9/7/6
f 25/41/7 52/42/7 19/43/7
f 17/44/8 49/14/8 18/14/8
f 11/16/9 42/5/9 10/5/9
f 13/2/10 45/30/10 12/12/10
f 27/45/11 59/46/11 26/47/11
f 15/48/12 36/49/12 48/50/12
f 13/2/13 46/10/13 44/2/13
f 11/16/14 49/14/14 43/28/14
f 8/29/12 46/10/12 14/10/12
f 16/51/3 38/52/3 5/53/3
f 12/12/15 50/44/15 17/44/15
f 1/54/15 33/55/15 2/56/15
f 19/43/5 51/57/5 20/58/5
f 2/56/10 35/59/10 3/60/10
f 24/36/16 51/57/16 53/61/16
f 30/62/11 61/63/11 29/39/11
f 3/60/13 36/49/13 4/64/13
f 28/65/17 48/50/17 54/66/17
f 31/67/11 64/68/11 63/69/11
f 5/53/6 37/70/6 6/71/6
f 21/72/18 47/73/18 16/74/18
f 28/65/8 64/68/8 32/75/8
f 6/71/9 39/76/9 7/77/9
f 22/78/4 55/79/4 21/72/4
f 31/67/5 60/80/5 27/45/5
f 7/77/14 34/81/14 1/54/14
f 23/38/4 56/82/4 22/78/4
f 26/47/8 62/83/8 30/62/8
f 7/1/1 14/10/1 13/2/1
f 4/4/1 11/16/1 10/5/1
f 9/7/1 8/29/1 1/8/1
f 1/8/1 8/29/1 14/10/1
f 13/2/1 12/12/1 5/11/1
f 12/12/1 17/44/1 16/13/1
f 10/5/1 9/7/1 2/9/1
f 16/13/1 17/44/1 18/14/1
f 15/15/1 18/14/1 11/16/1
f 19/17/1 20/84/1 24/18/1
f 28/20/1 21/22/1 16/13/1
f 27/21/1 22/24/1 21/22/1
f 26/23/1 23/25/1 22/24/1
f 25/19/1 24/18/1 23/25/1
f 28/20/1 32/34/1 31/26/1
f 26/23/1 30/35/1 29/27/1
f 39/1/2 37/3/2 44/2/2
f 36/4/2 35/6/2 42/5/2
f 34/8/2 41/29/2 40/7/2
f 34/8/2 39/1/2 46/10/2
f 38/11/2 45/30/2 44/2/2
f 47/13/2 50/44/2 45/30/2
f 33/9/2 40/7/2 42/5/2
f 49/14/2 50/44/2 47/13/2
f 48/15/2 36/4/2 43/28/2
f 53/18/2 51/84/2 52/17/2
f 48/15/2 47/13/2 55/22/2
f 55/22/2 56/32/2 60/31/2
f 56/32/2 57/25/2 59/23/2
f 59/23/2 57/25/2 53/18/2
f 54/20/2 60/31/2 63/33/2
f 59/23/2 58/19/2 61/27/2
f 8/29/3 9/7/3 40/7/3
f 24/36/4 53/61/4 57/37/4
f 29/39/5 61/63/5 58/40/5
f 10/5/6 42/5/6 40/7/6
f 25/41/7 58/40/7 52/42/7
f 17/44/8 50/44/8 49/14/8
f 11/16/9 43/28/9 42/5/9
f 13/2/10 44/2/10 45/30/10
f 27/45/11 60/80/11 59/46/11
f 15/48/12 4/64/12 36/49/12
f 13/2/13 14/10/13 46/10/13
f 11/16/14 18/14/14 49/14/14
f 8/29/12 41/29/12 46/10/12
f 16/51/3 47/85/3 38/52/3
f 12/12/15 45/30/15 50/44/15
f 1/54/15 34/81/15 33/55/15
f 19/43/5 52/42/5 51/57/5
f 2/56/10 33/55/10 35/59/10
f 24/36/16 20/58/16 51/57/16
f 30/62/11 62/83/11 61/63/11
f 3/60/13 35/59/13 36/49/13
f 28/65/17 15/48/17 48/50/17
f 31/67/11 32/75/11 64/68/11
f 5/53/6 38/52/6 37/70/6
f 21/72/18 55/79/18 47/73/18
f 28/65/8 54/66/8 64/68/8
f 6/71/9 37/70/9 39/76/9
f 22/78/4 56/82/4 55/79/4
f 31/67/5 63/69/5 60/80/5
f 7/77/14 39/76/14 34/81/14
f 23/38/4 57/37/4 56/82/4
f 26/47/8 59/46/8 62/83/8
