# Blender 4.4.1
# www.blender.org
mtllib eye.mtl
o eye
v -0.017612 -0.028076 -0.066716
v -0.017612 -0.028076 0.066717
v -0.012227 -0.067283 -0.066716
v -0.012227 -0.067283 0.066717
v -0.003726 -0.087757 -0.066716
v -0.003726 -0.087757 0.066717
v 0.005567 -0.085056 -0.066716
v 0.005567 -0.085056 0.066717
v 0.013560 -0.058979 -0.066716
v 0.013560 -0.058979 0.066716
v 0.017797 -0.017374 -0.066716
v 0.017797 -0.017374 0.066716
v 0.017253 0.027890 -0.066716
v 0.017253 0.027890 0.066716
v 0.011912 0.066832 -0.066716
v 0.011912 0.066832 0.066717
v 0.003384 0.087492 -0.066716
v 0.003384 0.087492 0.066717
v -0.005908 0.084894 -0.066716
v -0.005908 0.084894 0.066717
v -0.013906 0.058943 -0.066717
v -0.013906 0.058943 0.066716
v -0.018144 0.017565 -0.066717
v -0.018144 0.017565 0.066716
v -0.082200 -0.093648 0.066717
v -0.118399 -0.039534 0.066717
v -0.118399 -0.039534 -0.066716
v -0.082200 -0.093648 -0.066716
v -0.024739 -0.122062 0.066717
v -0.024739 -0.122062 -0.066716
v 0.039421 -0.118233 0.066717
v 0.039421 -0.118233 -0.066716
v 0.093266 -0.082166 0.066717
v 0.093265 -0.082166 -0.066716
v 0.121742 -0.024748 0.066717
v 0.121742 -0.024748 -0.066716
v 0.117987 0.039410 0.066717
v 0.117987 0.039410 -0.066716
v 0.081993 0.093292 0.066716
v 0.081993 0.093292 -0.066717
v 0.024617 0.121832 0.066716
v 0.024617 0.121832 -0.066717
v -0.039540 0.118149 0.066716
v -0.039540 0.118149 -0.066717
v -0.093459 0.082229 0.066716
v -0.093459 0.082229 -0.066717
v -0.122062 0.024896 0.066716
v -0.122062 0.024896 -0.066717
vn -0.8312 -0.5560 -0.0000
vn -0.4433 -0.8964 -0.0000
vn 0.0596 -0.9982 -0.0000
vn 0.5565 -0.8308 -0.0000
vn 0.8959 -0.4443 -0.0000
vn 0.9983 0.0584 -0.0000
vn 0.8315 0.5555 -0.0000
vn 0.4454 0.8954 -0.0000
vn -0.0573 0.9984 -0.0000
vn -0.5544 0.8322 -0.0000
vn -0.8948 0.4464 -0.0000
vn -0.9984 -0.0567 -0.0000
vn 0.9556 -0.2945 -0.0000
vn 0.2692 -0.9631 -0.0000
vn -0.0000 -0.0000 1.0000
vn -0.0000 -0.0000 -1.0000
vn 0.9948 -0.1019 -0.0000
vn 0.9999 0.0117 -0.0000
vn 0.9907 0.1361 -0.0000
vn 0.9236 0.3835 -0.0000
vn -0.2791 0.9603 -0.0000
vn -0.9561 0.2931 -0.0000
vn -0.9949 0.1013 -0.0000
vn -0.9999 -0.0120 -0.0000
vn -0.9907 -0.1359 -0.0000
vn -0.9244 -0.3815 -0.0000
vn 0.4454 0.8953 -0.0000
vn -0.9984 -0.0568 -0.0000
vt 0.390970 0.233562
vt 0.395635 0.299890
vt 0.395635 0.233562
vt 0.400229 0.299890
vt 0.400229 0.233562
vt 0.344825 0.233562
vt 0.349430 0.299890
vt 0.349430 0.233562
vt 0.354074 0.233562
vt 0.358667 0.299890
vt 0.358667 0.233562
vt 0.363272 0.233562
vt 0.363272 0.299890
vt 0.367915 0.233562
vt 0.367915 0.299890
vt 0.372507 0.233562
vt 0.372507 0.299890
vt 0.377112 0.233562
vt 0.377112 0.299890
vt 0.381755 0.233562
vt 0.381755 0.299890
vt 0.386346 0.233562
vt 0.390970 0.299890
vt 0.377185 0.233562
vt 0.372569 0.299890
vt 0.375633 0.233562
vt 0.374018 0.233562
vt 0.378824 0.233562
vt 0.378139 0.233562
vt 0.373581 0.299890
vt 0.371546 0.299890
vt 0.376140 0.233562
vt 0.344825 0.299890
vt 0.368886 0.299890
vt 0.373527 0.233562
vt 0.366919 0.299890
vt 0.371509 0.233562
vt 0.366248 0.299890
vt 0.370844 0.233562
vt 0.366709 0.299890
vt 0.354074 0.299890
vt 0.371290 0.233562
vt 0.367848 0.299890
vt 0.372478 0.233562
vt 0.369405 0.299890
vt 0.371059 0.299890
vt 0.373750 0.299890
vt 0.378356 0.233562
vt 0.374218 0.299890
vt 0.386346 0.299890
s 0
usemtl Material
f 26/1/1 28/2/1 25/3/1
f 25/3/2 30/4/2 29/5/2
f 29/6/3 32/7/3 31/8/3
f 32/7/4 33/9/4 31/8/4
f 33/9/5 36/10/5 35/11/5
f 36/10/6 37/12/6 35/11/6
f 38/13/7 39/14/7 37/12/7
f 40/15/8 41/16/8 39/14/8
f 42/17/9 43/18/9 41/16/9
f 44/19/10 45/20/10 43/18/10
f 46/21/11 47/22/11 45/20/11
f 47/22/12 27/23/12 26/1/12
f 22/24/13 19/25/13 20/26/13
f 19/25/14 18/27/14 20/26/14
f 2/28/15 25/3/15 4/29/15
f 28/2/16 1/30/16 3/31/16
f 4/29/15 29/5/15 6/32/15
f 30/33/16 3/31/16 5/34/16
f 6/32/15 31/8/15 8/35/15
f 32/7/16 5/34/16 7/36/16
f 31/8/15 10/37/15 8/35/15
f 9/38/16 32/7/16 7/36/16
f 33/9/15 12/39/15 10/37/15
f 11/40/16 34/41/16 9/38/16
f 12/39/15 37/12/15 14/42/15
f 38/13/16 11/40/16 13/43/16
f 14/42/15 39/14/15 16/44/15
f 40/15/16 13/43/16 15/45/16
f 16/44/15 41/16/15 18/27/15
f 42/17/16 15/45/16 17/46/16
f 18/27/15 43/18/15 20/26/15
f 44/19/16 17/46/16 19/25/16
f 43/18/15 22/24/15 20/26/15
f 21/47/16 44/19/16 19/25/16
f 45/20/15 24/48/15 22/24/15
f 23/49/16 46/21/16 21/47/16
f 24/48/15 26/1/15 2/28/15
f 27/23/16 23/49/16 1/30/16
f 23/49/17 22/24/17 24/48/17
f 1/30/18 24/48/18 2/28/18
f 3/31/19 2/28/19 4/29/19
f 5/34/20 4/29/20 6/32/20
f 8/35/21 5/34/21 6/32/21
f 10/37/22 7/36/22 8/35/22
f 12/39/23 9/38/23 10/37/23
f 13/43/24 12/39/24 14/42/24
f 16/44/25 13/43/25 14/42/25
f 17/46/26 16/44/26 18/27/26
f 26/1/1 27/23/1 28/2/1
f 25/3/2 28/2/2 30/4/2
f 29/6/3 30/33/3 32/7/3
f 32/7/4 34/41/4 33/9/4
f 33/9/5 34/41/5 36/10/5
f 36/10/6 38/13/6 37/12/6
f 38/13/7 40/15/7 39/14/7
f 40/15/27 42/17/27 41/16/27
f 42/17/9 44/19/9 43/18/9
f 44/19/10 46/21/10 45/20/10
f 46/21/11 48/50/11 47/22/11
f 47/22/28 48/50/28 27/23/28
f 22/24/13 21/47/13 19/25/13
f 19/25/14 17/46/14 18/27/14
f 2/28/15 26/1/15 25/3/15
f 28/2/16 27/23/16 1/30/16
f 4/29/15 25/3/15 29/5/15
f 30/33/16 28/2/16 3/31/16
f 6/32/15 29/5/15 31/8/15
f 32/7/16 30/33/16 5/34/16
f 31/8/15 33/9/15 10/37/15
f 9/38/16 34/41/16 32/7/16
f 33/9/15 35/11/15 12/39/15
f 11/40/16 36/10/16 34/41/16
f 12/39/15 35/11/15 37/12/15
f 38/13/16 36/10/16 11/40/16
f 14/42/15 37/12/15 39/14/15
f 40/15/16 38/13/16 13/43/16
f 16/44/15 39/14/15 41/16/15
f 42/17/16 40/15/16 15/45/16
f 18/27/15 41/16/15 43/18/15
f 44/19/16 42/17/16 17/46/16
f 43/18/15 45/20/15 22/24/15
f 21/47/16 46/21/16 44/19/16
f 45/20/15 47/22/15 24/48/15
f 23/49/16 48/50/16 46/21/16
f 24/48/15 47/22/15 26/1/15
f 27/23/16 48/50/16 23/49/16
f 23/49/17 21/47/17 22/24/17
f 1/30/18 23/49/18 24/48/18
f 3/31/19 1/30/19 2/28/19
f 5/34/20 3/31/20 4/29/20
f 8/35/21 7/36/21 5/34/21
f 10/37/22 9/38/22 7/36/22
f 12/39/23 11/40/23 9/38/23
f 13/43/24 11/40/24 12/39/24
f 16/44/25 15/45/25 13/43/25
f 17/46/26 15/45/26 16/44/26
