# Blender 4.4.1
# www.blender.org
mtllib large.mtl
o largeGear
v -0.061918 -0.015097 -0.039451
v -0.111365 -0.151944 -0.039451
v -0.061918 -0.015097 0.039451
v -0.111365 -0.151944 0.039451
v -0.152433 -0.110657 -0.039451
v -0.152433 -0.110657 0.039451
v -0.131439 -0.134858 0.039451
v -0.131439 -0.134858 -0.039451
v -0.182706 -0.132595 -0.039451
v -0.182706 -0.132595 0.039451
v -0.157591 -0.161575 0.039451
v -0.157591 -0.161575 -0.039451
v -0.025329 0.003550 -0.039451
v -0.034333 -0.185571 -0.039451
v -0.025329 0.003550 0.039451
v -0.034333 -0.185571 0.039451
v -0.089378 -0.165898 -0.039451
v -0.089378 -0.165898 0.039451
v -0.059881 -0.178868 0.039451
v -0.059882 -0.178868 -0.039451
v -0.107163 -0.198783 -0.039451
v -0.107163 -0.198783 0.039451
v -0.071775 -0.214312 0.039451
v -0.071775 -0.214312 -0.039451
v 0.018650 0.004792 -0.039451
v 0.049480 -0.181945 -0.039451
v 0.018650 0.004792 0.039451
v 0.049480 -0.181945 0.039451
v -0.008525 -0.188520 -0.039451
v -0.008525 -0.188520 0.039451
v 0.023575 -0.187065 0.039451
v 0.023575 -0.187065 -0.039451
v -0.010241 -0.225867 -0.039451
v -0.010241 -0.225867 0.039451
v 0.028218 -0.224161 0.039451
v 0.028218 -0.224161 -0.039451
v 0.064548 -0.005904 -0.039451
v 0.123610 -0.142509 -0.039451
v 0.064548 -0.005904 0.039451
v 0.123610 -0.142509 0.039451
v 0.074075 -0.173399 -0.039451
v 0.074075 -0.173399 0.039451
v 0.102566 -0.158338 0.039451
v 0.102566 -0.158338 -0.039451
v 0.088774 -0.207774 -0.039451
v 0.088775 -0.207774 0.039451
v 0.122935 -0.189688 0.039451
v 0.122935 -0.189688 -0.039451
v 0.092914 -0.021796 -0.039451
v 0.173091 -0.074709 -0.039451
v 0.092914 -0.021796 0.039451
v 0.173091 -0.074709 0.039451
v 0.141973 -0.124235 -0.039451
v 0.141973 -0.124235 0.039451
v 0.160996 -0.098249 0.039451
v 0.160996 -0.098249 -0.039451
v 0.170104 -0.148860 -0.039451
v 0.170104 -0.148860 0.039451
v 0.192921 -0.117704 0.039451
v 0.192921 -0.117704 -0.039451
v 0.103566 -0.001295 -0.039451
v 0.188207 0.007814 -0.039451
v 0.103566 -0.001294 0.039451
v 0.188207 0.007814 0.039451
v 0.181650 -0.050141 -0.039451
v 0.181650 -0.050141 0.039451
v 0.187455 -0.018536 0.039451
v 0.187455 -0.018536 -0.039451
v 0.217708 -0.060019 -0.039451
v 0.217708 -0.060019 0.039451
v 0.224666 -0.022150 0.039451
v 0.224666 -0.022151 -0.039451
v 0.086681 0.013721 -0.039451
v 0.165983 0.088827 -0.039451
v 0.086681 0.013721 0.039451
v 0.165983 0.088827 0.039451
v 0.185357 0.033640 -0.039451
v 0.185357 0.033640 0.039451
v 0.176896 0.064712 0.039451
v 0.176896 0.064712 -0.039451
v 0.222133 0.040362 -0.039451
v 0.222133 0.040362 0.039451
v 0.211983 0.077620 0.039451
v 0.211983 0.077620 -0.039451
v 0.057088 0.034490 -0.039451
v 0.110818 0.151896 -0.039451
v 0.057088 0.034490 0.039451
v 0.110818 0.151896 0.039451
v 0.152082 0.110801 -0.039451
v 0.152082 0.110801 0.039451
v 0.130982 0.134908 0.039451
v 0.130982 0.134908 -0.039451
v 0.182242 0.132895 -0.039451
v 0.182242 0.132895 0.039451
v 0.156997 0.161759 0.039451
v 0.156997 0.161759 -0.039451
v 0.014715 0.045957 -0.039451
v 0.033617 0.185131 -0.039451
v 0.014715 0.045957 0.039451
v 0.033617 0.185131 0.039451
v 0.088760 0.165738 -0.039451
v 0.088760 0.165738 0.039451
v 0.059206 0.178580 0.039451
v 0.059206 0.178580 -0.039451
v 0.106371 0.198716 -0.039451
v 0.106371 0.198716 0.039451
v 0.070914 0.214085 0.039451
v 0.070914 0.214085 -0.039451
v -0.029124 0.043159 -0.039451
v -0.050183 0.181054 -0.039451
v -0.029124 0.043159 0.039451
v -0.050183 0.181054 0.039451
v 0.007790 0.187895 -0.039451
v 0.007790 0.187895 0.039451
v -0.024302 0.186302 0.039451
v -0.024302 0.186302 -0.039451
v 0.009313 0.225250 -0.039451
v 0.009313 0.225250 0.039451
v -0.029138 0.223374 0.039451
v -0.029138 0.223374 -0.039451
v -0.065084 0.027001 -0.039451
v -0.124124 0.141262 -0.039451
v -0.065084 0.027001 0.039451
v -0.124124 0.141263 0.039451
v -0.074736 0.172384 -0.039451
v -0.074736 0.172384 0.039451
v -0.103161 0.157196 0.039451
v -0.103161 0.157196 -0.039451
v -0.089616 0.206681 -0.039451
v -0.089616 0.206681 0.039451
v -0.123694 0.188439 0.039451
v -0.123694 0.188439 -0.039451
v -0.089800 0.005706 -0.039451
v -0.173213 0.073167 -0.039451
v -0.089800 0.005706 0.039451
v -0.173213 0.073167 0.039451
v -0.142397 0.122892 -0.039451
v -0.142397 0.122892 0.039451
v -0.161237 0.096763 0.039451
v -0.161237 0.096763 -0.039451
v -0.170654 0.147372 -0.039451
v -0.170654 0.147372 0.039451
v -0.193264 0.116051 0.039451
v -0.193264 0.116051 -0.039451
v -0.105529 -0.016090 -0.039451
v -0.187941 -0.009424 -0.039451
v -0.105529 -0.016090 0.039451
v -0.187941 -0.009424 0.039451
v -0.181649 0.048560 -0.039451
v -0.181649 0.048560 0.039451
v -0.187318 0.016932 0.039451
v -0.187318 0.016932 -0.039451
v -0.217757 0.058251 -0.039451
v -0.217757 0.058251 0.039451
v -0.224547 0.020353 0.039451
v -0.224547 0.020353 -0.039451
v -0.093991 -0.030164 -0.039451
v -0.165250 -0.090310 -0.039451
v -0.093991 -0.030164 0.039451
v -0.165250 -0.090310 0.039451
v -0.184963 -0.035240 -0.039451
v -0.184963 -0.035240 0.039451
v -0.176282 -0.066255 0.039451
v -0.176282 -0.066255 -0.039451
v -0.221704 -0.042153 -0.039451
v -0.221704 -0.042153 0.039451
v -0.211301 -0.079347 0.039451
v -0.211301 -0.079347 -0.039451
vn -0.0000 -0.0000 1.0000
vn -0.0000 -0.0000 -1.0000
vn -0.4252 0.9051 -0.0000
vn 0.7146 -0.6995 -0.0000
vn -0.6482 -0.7615 -0.0000
vn -0.8461 -0.5330 -0.0000
vn -0.7557 -0.6549 -0.0000
vn -0.5868 0.8097 -0.0000
vn -0.4541 0.8910 -0.0000
vn 0.9480 -0.3181 -0.0000
vn -0.2538 -0.9673 -0.0000
vn -0.5358 -0.8443 -0.0000
vn -0.4018 -0.9157 -0.0000
vn -0.8796 0.4757 -0.0000
vn -0.0282 0.9996 -0.0000
vn 0.9923 0.1242 -0.0000
vn 0.1939 -0.9810 -0.0000
vn -0.1135 -0.9935 -0.0000
vn 0.0443 -0.9990 -0.0000
vn -0.9989 0.0459 -0.0000
vn 0.2270 0.9739 -0.0000
vn 0.8385 0.5448 -0.0000
vn 0.6011 -0.7992 -0.0000
vn 0.3282 -0.9446 -0.0000
vn 0.4679 -0.8838 -0.0000
vn -0.9195 -0.3932 -0.0000
vn 0.4888 0.8724 -0.0000
vn 0.5204 0.8539 -0.0000
vn 0.8895 -0.4570 -0.0000
vn 0.7054 -0.7088 -0.0000
vn 0.8068 -0.5909 -0.0000
vn -0.6587 -0.7524 -0.0000
vn -0.8874 0.4611 -0.0000
vn 0.0967 0.9953 -0.0000
vn 0.9996 -0.0285 -0.0000
vn 0.9443 -0.3290 -0.0000
vn 0.9835 -0.1807 -0.0000
vn -0.2642 -0.9645 -0.0000
vn -0.6645 -0.7473 -0.0000
vn -0.3453 0.9385 -0.0000
vn 0.9111 0.4123 -0.0000
vn 0.9940 0.1097 -0.0000
vn 0.9648 0.2629 -0.0000
vn 0.1798 -0.9837 -0.0000
vn -0.5744 -0.8185 -0.0000
vn -0.7182 0.6958 -0.0000
vn 0.6443 0.7648 -0.0000
vn 0.8451 0.5346 -0.0000
vn 0.7527 0.6583 -0.0000
vn 0.5910 -0.8067 -0.0000
vn -0.2612 -0.9653 -0.0000
vn -0.9497 0.3132 -0.0000
vn 0.2480 0.9688 -0.0000
vn 0.5315 0.8470 -0.0000
vn 0.3977 0.9175 -0.0000
vn 0.8821 -0.4711 -0.0000
vn 0.0637 -0.9980 -0.0000
vn -0.9916 -0.1293 -0.0000
vn -0.1987 0.9801 -0.0000
vn 0.1064 0.9943 -0.0000
vn -0.0487 0.9988 -0.0000
vn 0.9992 -0.0407 -0.0000
vn 0.4099 -0.9121 -0.0000
vn -0.8357 -0.5492 -0.0000
vn -0.6051 0.7961 -0.0000
vn -0.3330 0.9429 -0.0000
vn -0.4719 0.8816 -0.0000
vn 0.9174 0.3980 -0.0000
vn 0.6527 -0.7576 -0.0000
vn -0.5159 -0.8566 -0.0000
vn -0.8917 0.4526 -0.0000
vn -0.7090 0.7052 -0.0000
vn -0.8108 0.5853 -0.0000
vn 0.6548 0.7558 -0.0000
vn 0.8109 -0.5852 -0.0000
vn -0.0915 -0.9958 -0.0000
vn -0.9997 0.0236 -0.0000
vn -0.9460 0.3243 -0.0000
vn -0.9843 0.1763 -0.0000
vn 0.2592 0.9658 -0.0000
vn 0.7733 0.6340 -0.0000
vn 0.3502 -0.9367 -0.0000
vn -0.9090 -0.4169 -0.0000
vn -0.9934 -0.1146 -0.0000
vn -0.9630 -0.2694 -0.0000
vn -0.1849 0.9828 -0.0000
vn 0.5316 0.8470 -0.0000
vt 0.807159 0.515489
vt 0.835528 0.427981
vt 0.799309 0.502024
vt 0.393908 0.370613
vt 0.388151 0.437979
vt 0.388151 0.370613
vt 0.860776 0.471469
vt 0.844934 0.440036
vt 0.531314 0.940633
vt 0.522838 0.873267
vt 0.531314 0.873267
vt 0.537291 0.940633
vt 0.537291 0.873267
vt 0.500214 0.873267
vt 0.505666 0.940633
vt 0.500214 0.940633
vt 0.844933 0.440036
vt 0.854770 0.457112
vt 0.514143 0.940633
vt 0.522838 0.940633
vt 0.505666 0.873267
vt 0.857187 0.421185
vt 0.868955 0.441633
vt 0.799434 0.404254
vt 0.788292 0.494672
vt 0.399739 0.370613
vt 0.393908 0.437979
vt 0.825226 0.418135
vt 0.811405 0.408983
vt 0.568910 0.873267
vt 0.560434 0.940633
vt 0.560433 0.873267
vt 0.574899 0.940632
vt 0.574899 0.873267
vt 0.543195 0.873267
vt 0.543195 0.940633
vt 0.551672 0.940633
vt 0.833559 0.394932
vt 0.833559 0.394932
vt 0.816978 0.383974
vt 0.776159 0.495563
vt 0.317862 0.370613
vt 0.323740 0.437979
vt 0.317862 0.437979
vt 0.772301 0.403200
vt 0.760163 0.406812
vt 0.080873 0.873267
vt 0.072396 0.940632
vt 0.072396 0.873267
vt 0.086860 0.940633
vt 0.086860 0.873267
vt 0.049302 0.873267
vt 0.055191 0.940632
vt 0.049302 0.940632
vt 0.787341 0.402173
vt 0.063668 0.940632
vt 0.055191 0.873267
vt 0.770126 0.377025
vt 0.788146 0.375821
vt 0.765477 0.504063
vt 0.323740 0.370613
vt 0.329587 0.437979
vt 0.725429 0.434638
vt 0.748639 0.412842
vt 0.735289 0.423469
vt 0.118480 0.940633
vt 0.110003 0.873267
vt 0.118480 0.873267
vt 0.124450 0.873267
vt 0.092763 0.873267
vt 0.092763 0.940633
vt 0.101240 0.940633
vt 0.110003 0.940633
vt 0.101240 0.873267
vt 0.741751 0.388588
vt 0.741751 0.388588
vt 0.725745 0.401349
vt 0.758350 0.518792
vt 0.329587 0.370613
vt 0.335443 0.437979
vt 0.707911 0.465867
vt 0.702244 0.482477
vt 0.156033 0.940633
vt 0.147556 0.873267
vt 0.156033 0.873267
vt 0.162033 0.873267
vt 0.124450 0.940633
vt 0.130324 0.873267
vt 0.130324 0.940633
vt 0.716825 0.447532
vt 0.138800 0.940633
vt 0.147556 0.940633
vt 0.692953 0.452140
vt 0.703644 0.430157
vt 0.756174 0.536763
vt 0.341313 0.370613
vt 0.335443 0.370613
vt 0.695514 0.522112
vt 0.695162 0.540704
vt 0.193614 0.940633
vt 0.185138 0.873267
vt 0.193614 0.873267
vt 0.199591 0.940633
vt 0.199591 0.873268
vt 0.167932 0.940633
vt 0.162033 0.940633
vt 0.698234 0.499811
vt 0.176408 0.940633
vt 0.185138 0.940633
vt 0.167932 0.873267
vt 0.678078 0.519561
vt 0.681339 0.492842
vt 0.678078 0.519561
vt 0.705575 0.597866
vt 0.759345 0.554268
vt 0.705575 0.597866
vt 0.347143 0.437979
vt 0.341313 0.437979
vt 0.696497 0.558926
vt 0.700462 0.580851
vt 0.231191 0.940633
vt 0.222714 0.873268
vt 0.231191 0.873268
vt 0.237192 0.873268
vt 0.205482 0.873268
vt 0.205482 0.940633
vt 0.213959 0.940633
vt 0.222714 0.940633
vt 0.700462 0.580851
vt 0.679265 0.563670
vt 0.684022 0.589959
vt 0.767383 0.568039
vt 0.353035 0.370613
vt 0.347143 0.370613
vt 0.721975 0.630380
vt 0.731423 0.642367
vt 0.268735 0.940633
vt 0.260258 0.873268
vt 0.268735 0.873268
vt 0.274713 0.940633
vt 0.274713 0.873268
vt 0.243087 0.940633
vt 0.237192 0.940633
vt 0.712088 0.613371
vt 0.251564 0.940633
vt 0.260258 0.940633
vt 0.251564 0.873268
vt 0.709785 0.649326
vt 0.697957 0.628960
vt 0.778425 0.575313
vt 0.358867 0.370613
vt 0.353035 0.437979
vt 0.767596 0.665817
vt 0.741758 0.652134
vt 0.755606 0.661194
vt 0.306332 0.940633
vt 0.297856 0.873268
vt 0.306332 0.873268
vt 0.312321 0.940633
vt 0.312321 0.873268
vt 0.280617 0.940633
vt 0.297856 0.940633
vt 0.289094 0.873268
vt 0.289094 0.940633
vt 0.733506 0.675403
vt 0.750120 0.686247
vt 0.806861 0.662940
vt 0.790556 0.574316
vt 0.364746 0.370613
vt 0.358867 0.437979
vt 0.794734 0.666643
vt 0.343891 0.940633
vt 0.335415 0.873268
vt 0.343891 0.873268
vt 0.349879 0.940633
vt 0.349879 0.873268
vt 0.318210 0.940633
vt 0.779697 0.667767
vt 0.335415 0.940633
vt 0.326687 0.873268
vt 0.326687 0.940633
vt 0.797000 0.692801
vt 0.778983 0.694125
vt 0.841506 0.634864
vt 0.801221 0.565749
vt 0.370595 0.370613
vt 0.364746 0.437979
vt 0.818365 0.656823
vt 0.831684 0.646107
vt 0.381499 0.940633
vt 0.373023 0.873268
vt 0.381499 0.873268
vt 0.387469 0.940633
vt 0.387469 0.873268
vt 0.355782 0.940633
vt 0.364259 0.940633
vt 0.373023 0.940633
vt 0.355782 0.873268
vt 0.825337 0.681023
vt 0.841304 0.668151
vt 0.864507 0.586816
vt 0.808276 0.550943
vt 0.376450 0.370613
vt 0.370595 0.437979
vt 0.858896 0.603465
vt 0.419056 0.940633
vt 0.410579 0.873268
vt 0.419056 0.873268
vt 0.425055 0.940633
vt 0.425055 0.873268
vt 0.393344 0.940633
vt 0.850068 0.621902
vt 0.410579 0.940633
vt 0.401821 0.873268
vt 0.393344 0.873268
vt 0.401821 0.940633
vt 0.873902 0.617075
vt 0.863308 0.639174
vt 0.810410 0.532958
vt 0.382321 0.370613
vt 0.376450 0.437979
vt 0.871116 0.547137
vt 0.871408 0.528541
vt 0.456635 0.873267
vt 0.448159 0.940633
vt 0.448159 0.873267
vt 0.462612 0.940633
vt 0.462612 0.873267
vt 0.430953 0.940633
vt 0.868460 0.569454
vt 0.439429 0.873268
vt 0.430953 0.873268
vt 0.439429 0.940633
vt 0.885378 0.576292
vt 0.888560 0.549551
vt 0.382321 0.437979
vt 0.865945 0.488442
vt 0.494214 0.873267
vt 0.485737 0.940633
vt 0.485737 0.873267
vt 0.468504 0.940633
vt 0.870012 0.510326
vt 0.476981 0.873267
vt 0.468504 0.873267
vt 0.476981 0.940633
vt 0.882353 0.479205
vt 0.887228 0.505448
vt 0.514143 0.873267
vt 0.868955 0.441633
vt 0.399739 0.437979
vt 0.568910 0.940632
vt 0.551672 0.873267
vt 0.816978 0.383974
vt 0.080873 0.940633
vt 0.063668 0.873267
vt 0.138800 0.873267
vt 0.703644 0.430157
vt 0.176408 0.873267
vt 0.213959 0.873268
vt 0.243087 0.873268
vt 0.280617 0.873268
vt 0.318210 0.873268
vt 0.364259 0.873268
vt 0.456635 0.940633
vt 0.494214 0.940633
vt 0.887228 0.505448
s 0
usemtl Material
f 159/1/1 4/2/1 3/3/1
f 2/2/2 157/1/2 1/3/2
f 3/4/3 157/5/3 159/6/3
f 160/7/1 7/8/1 4/2/1
f 7/9/4 12/10/4 8/11/4
f 4/12/5 8/11/5 2/13/5
f 158/14/6 6/15/6 160/16/6
f 158/7/2 8/17/2 5/18/2
f 10/19/7 12/10/7 11/20/7
f 5/21/8 10/19/8 6/15/8
f 5/18/2 12/22/2 9/23/2
f 6/18/1 11/22/1 7/8/1
f 3/3/1 16/24/1 15/25/1
f 14/24/2 1/3/2 13/25/2
f 15/26/9 1/27/9 3/4/9
f 16/24/1 18/28/1 19/29/1
f 20/30/10 23/31/10 24/32/10
f 16/33/11 20/30/11 14/34/11
f 4/12/12 17/35/12 18/36/12
f 14/24/2 17/28/2 2/2/2
f 22/37/13 24/32/13 23/31/13
f 17/35/14 22/37/14 18/36/14
f 20/29/2 21/38/2 17/28/2
f 19/29/1 22/39/1 23/40/1
f 16/24/1 27/41/1 15/25/1
f 25/41/2 14/24/2 13/25/2
f 15/42/15 25/43/15 13/44/15
f 16/24/1 31/45/1 28/46/1
f 32/47/16 35/48/16 36/49/16
f 28/50/17 32/47/17 26/51/17
f 14/52/18 30/53/18 16/54/18
f 14/24/2 32/45/2 29/55/2
f 34/56/19 36/49/19 35/48/19
f 29/57/20 34/56/20 30/53/20
f 29/55/2 36/58/2 33/59/2
f 30/55/1 35/58/1 31/45/1
f 28/46/1 39/60/1 27/41/1
f 37/60/2 26/46/2 25/41/2
f 27/61/21 37/62/21 25/43/21
f 40/63/1 42/64/1 43/65/1
f 43/66/22 48/67/22 44/68/22
f 38/69/23 43/66/23 44/68/23
f 28/50/24 41/70/24 42/71/24
f 38/63/2 41/64/2 26/46/2
f 46/72/25 48/67/25 47/73/25
f 42/71/26 45/74/26 46/72/26
f 44/65/2 45/75/2 41/64/2
f 43/65/1 46/76/1 47/77/1
f 40/63/1 51/78/1 39/60/1
f 49/78/2 38/63/2 37/60/2
f 39/79/27 49/80/27 37/62/27
f 40/63/1 55/81/1 52/82/1
f 55/83/28 60/84/28 56/85/28
f 50/86/29 55/83/29 56/85/29
f 40/87/30 53/88/30 54/89/30
f 38/63/2 56/81/2 53/90/2
f 58/91/31 60/84/31 59/92/31
f 53/88/32 58/91/32 54/89/32
f 53/90/2 60/93/2 57/94/2
f 54/90/1 59/93/1 55/81/1
f 52/82/1 63/95/1 51/78/1
f 61/95/2 50/82/2 49/78/2
f 63/96/33 49/80/33 51/97/33
f 52/82/1 67/98/1 64/99/1
f 67/100/34 72/101/34 68/102/34
f 64/103/35 68/102/35 62/104/35
f 50/86/36 66/105/36 52/106/36
f 50/82/2 68/98/2 65/107/2
f 70/108/37 72/101/37 71/109/37
f 65/110/38 70/108/38 66/105/38
f 65/107/2 72/111/2 69/112/2
f 66/107/1 71/113/1 67/98/1
f 63/95/1 76/114/1 75/115/1
f 74/116/2 61/95/2 73/115/2
f 63/96/39 73/117/39 61/118/39
f 76/114/1 78/119/1 79/120/1
f 79/121/40 84/122/40 80/123/40
f 74/124/41 79/121/41 80/123/41
f 64/103/42 77/125/42 78/126/42
f 74/116/2 77/119/2 62/99/2
f 82/127/43 84/122/43 83/128/43
f 77/125/44 82/127/44 78/126/44
f 80/129/2 81/130/2 77/119/2
f 79/120/1 82/130/1 83/131/1
f 76/114/1 87/132/1 75/115/1
f 85/132/2 74/116/2 73/115/2
f 87/133/45 73/117/45 75/134/45
f 76/114/1 91/135/1 88/136/1
f 91/137/46 96/138/46 92/139/46
f 88/140/47 92/139/47 86/141/47
f 74/124/48 90/142/48 76/143/48
f 74/116/2 92/135/2 89/144/2
f 94/145/49 96/138/49 95/146/49
f 90/142/50 93/147/50 94/145/50
f 89/144/2 96/148/2 93/149/2
f 90/144/1 95/148/1 91/135/1
f 88/136/1 99/150/1 87/132/1
f 97/150/2 86/136/2 85/132/2
f 99/151/51 85/152/51 87/133/51
f 100/153/1 102/154/1 103/155/1
f 103/156/52 108/157/52 104/158/52
f 100/159/53 104/158/53 98/160/53
f 86/141/54 102/161/54 88/140/54
f 98/153/2 101/154/2 86/136/2
f 107/162/55 105/163/55 108/157/55
f 102/161/56 105/163/56 106/164/56
f 104/155/2 105/165/2 101/154/2
f 103/155/1 106/165/1 107/166/1
f 99/150/1 112/167/1 111/168/1
f 110/167/2 97/150/2 109/168/2
f 111/169/57 97/170/57 99/151/57
f 100/153/1 115/171/1 112/167/1
f 115/172/58 120/173/58 116/174/58
f 112/175/59 116/174/59 110/176/59
f 98/160/60 114/177/60 100/159/60
f 98/153/2 116/171/2 113/178/2
f 119/179/61 117/180/61 120/173/61
f 114/177/62 117/180/62 118/181/62
f 113/178/2 120/182/2 117/183/2
f 114/178/1 119/182/1 115/171/1
f 111/168/1 124/184/1 123/185/1
f 122/184/2 109/168/2 121/185/2
f 123/186/63 109/187/63 111/169/63
f 124/184/1 126/188/1 127/189/1
f 127/190/64 132/191/64 128/192/64
f 124/193/65 128/192/65 122/194/65
f 110/176/66 126/195/66 112/175/66
f 122/184/2 125/188/2 110/167/2
f 130/196/67 132/191/67 131/197/67
f 125/198/68 130/196/68 126/195/68
f 128/189/2 129/199/2 125/188/2
f 127/189/1 130/199/1 131/200/1
f 123/185/1 136/201/1 135/202/1
f 134/201/2 121/185/2 133/202/2
f 135/203/69 121/204/69 123/186/69
f 124/184/1 139/205/1 136/201/1
f 139/206/70 144/207/70 140/208/70
f 136/209/71 140/208/71 134/210/71
f 122/194/72 138/211/72 124/193/72
f 122/184/2 140/205/2 137/212/2
f 143/213/73 141/214/73 144/207/73
f 137/215/74 142/216/74 138/211/74
f 137/212/2 144/217/2 141/218/2
f 138/212/1 143/217/1 139/205/1
f 136/201/1 147/219/1 135/202/1
f 145/219/2 134/201/2 133/202/2
f 147/220/75 133/221/75 135/203/75
f 136/201/1 151/222/1 148/223/1
f 152/224/76 155/225/76 156/226/76
f 148/227/77 152/224/77 146/228/77
f 134/210/78 150/229/78 136/209/78
f 134/201/2 152/222/2 149/230/2
f 155/225/79 153/231/79 156/226/79
f 149/232/80 154/233/80 150/229/80
f 152/222/2 153/234/2 149/230/2
f 151/222/1 154/234/1 155/235/1
f 147/219/1 160/7/1 159/1/1
f 158/7/2 145/219/2 157/1/2
f 159/6/81 145/236/81 147/220/81
f 148/223/1 163/237/1 160/7/1
f 164/238/82 167/239/82 168/240/82
f 160/16/83 164/238/83 158/14/83
f 146/228/84 162/241/84 148/227/84
f 146/223/2 164/237/2 161/242/2
f 167/239/85 165/243/85 168/240/85
f 161/244/86 166/245/86 162/241/86
f 161/242/2 168/246/2 165/247/2
f 162/242/1 167/246/1 163/237/1
f 159/1/1 160/7/1 4/2/1
f 2/2/2 158/7/2 157/1/2
f 3/4/3 1/27/3 157/5/3
f 160/7/1 6/18/1 7/8/1
f 7/9/4 11/20/4 12/10/4
f 4/12/5 7/9/5 8/11/5
f 158/14/6 5/21/6 6/15/6
f 158/7/2 2/2/2 8/17/2
f 10/19/7 9/248/7 12/10/7
f 5/21/8 9/248/8 10/19/8
f 5/18/2 8/17/2 12/22/2
f 6/18/1 10/249/1 11/22/1
f 3/3/1 4/2/1 16/24/1
f 14/24/2 2/2/2 1/3/2
f 15/26/9 13/250/9 1/27/9
f 16/24/1 4/2/1 18/28/1
f 20/30/10 19/251/10 23/31/10
f 16/33/11 19/251/11 20/30/11
f 4/12/12 2/13/12 17/35/12
f 14/24/2 20/29/2 17/28/2
f 22/37/13 21/252/13 24/32/13
f 17/35/14 21/252/14 22/37/14
f 20/29/2 24/253/2 21/38/2
f 19/29/1 18/28/1 22/39/1
f 16/24/1 28/46/1 27/41/1
f 25/41/2 26/46/2 14/24/2
f 15/42/15 27/61/15 25/43/15
f 16/24/1 30/55/1 31/45/1
f 32/47/16 31/254/16 35/48/16
f 28/50/17 31/254/17 32/47/17
f 14/52/18 29/57/18 30/53/18
f 14/24/2 26/46/2 32/45/2
f 34/56/19 33/255/19 36/49/19
f 29/57/20 33/255/20 34/56/20
f 29/55/2 32/45/2 36/58/2
f 30/55/1 34/59/1 35/58/1
f 28/46/1 40/63/1 39/60/1
f 37/60/2 38/63/2 26/46/2
f 27/61/21 39/79/21 37/62/21
f 40/63/1 28/46/1 42/64/1
f 43/66/22 47/73/22 48/67/22
f 38/69/23 40/87/23 43/66/23
f 28/50/24 26/51/24 41/70/24
f 38/63/2 44/65/2 41/64/2
f 46/72/25 45/74/25 48/67/25
f 42/71/26 41/70/26 45/74/26
f 44/65/2 48/77/2 45/75/2
f 43/65/1 42/64/1 46/76/1
f 40/63/1 52/82/1 51/78/1
f 49/78/2 50/82/2 38/63/2
f 39/79/27 51/97/27 49/80/27
f 40/63/1 54/90/1 55/81/1
f 55/83/28 59/92/28 60/84/28
f 50/86/29 52/106/29 55/83/29
f 40/87/30 38/69/30 53/88/30
f 38/63/2 50/82/2 56/81/2
f 58/91/31 57/256/31 60/84/31
f 53/88/32 57/256/32 58/91/32
f 53/90/2 56/81/2 60/93/2
f 54/90/1 58/257/1 59/93/1
f 52/82/1 64/99/1 63/95/1
f 61/95/2 62/99/2 50/82/2
f 63/96/33 61/118/33 49/80/33
f 52/82/1 66/107/1 67/98/1
f 67/100/34 71/109/34 72/101/34
f 64/103/35 67/100/35 68/102/35
f 50/86/36 65/110/36 66/105/36
f 50/82/2 62/99/2 68/98/2
f 70/108/37 69/258/37 72/101/37
f 65/110/38 69/258/38 70/108/38
f 65/107/2 68/98/2 72/111/2
f 66/107/1 70/112/1 71/113/1
f 63/95/1 64/99/1 76/114/1
f 74/116/2 62/99/2 61/95/2
f 63/96/39 75/134/39 73/117/39
f 76/114/1 64/99/1 78/119/1
f 79/121/40 83/128/40 84/122/40
f 74/124/41 76/143/41 79/121/41
f 64/103/42 62/104/42 77/125/42
f 74/116/2 80/129/2 77/119/2
f 82/127/43 81/259/43 84/122/43
f 77/125/44 81/259/44 82/127/44
f 80/129/2 84/131/2 81/130/2
f 79/120/1 78/119/1 82/130/1
f 76/114/1 88/136/1 87/132/1
f 85/132/2 86/136/2 74/116/2
f 87/133/45 85/152/45 73/117/45
f 76/114/1 90/144/1 91/135/1
f 91/137/46 95/146/46 96/138/46
f 88/140/47 91/137/47 92/139/47
f 74/124/48 89/260/48 90/142/48
f 74/116/2 86/136/2 92/135/2
f 94/145/49 93/147/49 96/138/49
f 90/142/50 89/260/50 93/147/50
f 89/144/2 92/135/2 96/148/2
f 90/144/1 94/149/1 95/148/1
f 88/136/1 100/153/1 99/150/1
f 97/150/2 98/153/2 86/136/2
f 99/151/51 97/170/51 85/152/51
f 100/153/1 88/136/1 102/154/1
f 103/156/52 107/162/52 108/157/52
f 100/159/53 103/156/53 104/158/53
f 86/141/87 101/261/87 102/161/87
f 98/153/2 104/155/2 101/154/2
f 107/162/55 106/164/55 105/163/55
f 102/161/56 101/261/56 105/163/56
f 104/155/2 108/166/2 105/165/2
f 103/155/1 102/154/1 106/165/1
f 99/150/1 100/153/1 112/167/1
f 110/167/2 98/153/2 97/150/2
f 111/169/57 109/187/57 97/170/57
f 100/153/1 114/178/1 115/171/1
f 115/172/58 119/179/58 120/173/58
f 112/175/59 115/172/59 116/174/59
f 98/160/60 113/262/60 114/177/60
f 98/153/2 110/167/2 116/171/2
f 119/179/61 118/181/61 117/180/61
f 114/177/62 113/262/62 117/180/62
f 113/178/2 116/171/2 120/182/2
f 114/178/1 118/183/1 119/182/1
f 111/168/1 112/167/1 124/184/1
f 122/184/2 110/167/2 109/168/2
f 123/186/63 121/204/63 109/187/63
f 124/184/1 112/167/1 126/188/1
f 127/190/64 131/197/64 132/191/64
f 124/193/65 127/190/65 128/192/65
f 110/176/66 125/198/66 126/195/66
f 122/184/2 128/189/2 125/188/2
f 130/196/67 129/263/67 132/191/67
f 125/198/68 129/263/68 130/196/68
f 128/189/2 132/200/2 129/199/2
f 127/189/1 126/188/1 130/199/1
f 123/185/1 124/184/1 136/201/1
f 134/201/2 122/184/2 121/185/2
f 135/203/69 133/221/69 121/204/69
f 124/184/1 138/212/1 139/205/1
f 139/206/70 143/213/70 144/207/70
f 136/209/71 139/206/71 140/208/71
f 122/194/72 137/215/72 138/211/72
f 122/184/2 134/201/2 140/205/2
f 143/213/73 142/216/73 141/214/73
f 137/215/74 141/214/74 142/216/74
f 137/212/2 140/205/2 144/217/2
f 138/212/1 142/218/1 143/217/1
f 136/201/1 148/223/1 147/219/1
f 145/219/2 146/223/2 134/201/2
f 147/220/75 145/236/75 133/221/75
f 136/201/1 150/230/1 151/222/1
f 152/224/76 151/264/76 155/225/76
f 148/227/77 151/264/77 152/224/77
f 134/210/78 149/232/78 150/229/78
f 134/201/2 146/223/2 152/222/2
f 155/225/79 154/233/79 153/231/79
f 149/232/80 153/231/80 154/233/80
f 152/222/2 156/235/2 153/234/2
f 151/222/1 150/230/1 154/234/1
f 147/219/1 148/223/1 160/7/1
f 158/7/2 146/223/2 145/219/2
f 159/6/81 157/5/81 145/236/81
f 148/223/1 162/242/1 163/237/1
f 164/238/82 163/265/82 167/239/82
f 160/16/83 163/265/83 164/238/83
f 146/228/84 161/244/84 162/241/84
f 146/223/2 158/7/2 164/237/2
f 167/239/85 166/245/85 165/243/85
f 161/244/86 165/243/86 166/245/86
f 161/242/2 164/237/2 168/246/2
f 162/242/1 166/266/1 167/246/1
