# Blender 4.5.2 LTS
# www.blender.org
mtllib triangle.mtl
o Cone
v 0.000000 0.648527 0.161076
v -0.429642 -0.343690 -0.161076
v 0.429642 -0.343690 -0.161076
v 0.000000 0.648527 -0.161076
v -0.429642 -0.343690 0.161076
v 0.429642 -0.343690 0.161076
vn 0.9177 0.3974 -0.0000
vn -0.0000 -1.0000 -0.0000
vn -0.0000 -0.0000 -1.0000
vn -0.0000 -0.0000 1.0000
vn -0.9177 0.3974 -0.0000
vt 0.250000 0.250000
vt 0.042154 0.130000
vt 0.457846 0.130000

s 0
usemtl Material
f 1/1/1 3/2/1 4/1/1
f 6/2/2 2/3/2 3/2/2
f 2/3/3 4/1/3 3/2/3
f 5/3/4 6/2/4 1/1/4
f 5/3/5 4/1/5 2/3/5
f 1/1/1 6/2/1 3/2/1
f 6/2/2 5/3/2 2/3/2
f 5/3/5 1/1/5 4/1/5

